# 3ds Max Wavefront OBJ Exporter v0.97b - (c)2007 guruware
# File Created: 12.02.2016 20:09:24

#
# object diamant_2
#

v  0.2041 0.8441 0.1687
v  -0.2158 0.6308 0.5905
v  -0.3841 0.0602 0.8046
v  0.6298 0.5751 -0.2137
v  0.2235 -0.8025 0.3033
v  0.6435 -0.5893 -0.1185
v  0.8118 -0.0187 -0.3326
v  -0.2021 -0.5335 0.6857
v  0.0948 1.0054 0.1813
v  -0.1411 1.0767 0.3129
v  -0.2525 1.1384 0.3367
v  -0.2328 1.0301 0.4050
v  -0.2898 0.8101 0.5675
v  -0.3860 0.6819 0.6715
v  -0.5956 0.5466 0.7973
v  -0.7159 0.5208 0.8378
v  -0.6324 0.4221 0.8440
v  -0.5401 0.1594 0.8676
v  -0.5378 -0.0310 0.8832
v  -0.6239 -0.2961 0.9028
v  -0.7051 -0.3965 0.9128
v  -0.5842 -0.4257 0.8768
v  -0.3712 -0.5747 0.7743
v  -0.2718 -0.7158 0.6923
v  -0.2094 -0.9579 0.5676
v  -0.2263 -1.0762 0.5178
v  -0.1164 -1.0166 0.4841
v  0.1180 -0.9621 0.3422
v  0.2563 -0.9712 0.2106
v  0.4051 -1.0510 -0.0119
v  0.4399 -1.1201 -0.1157
v  0.4968 -1.0044 -0.1040
v  0.6408 -0.7760 -0.1756
v  0.7370 -0.6478 -0.2796
v  0.8597 -0.5210 -0.4963
v  0.9033 -0.5026 -0.6168
v  0.8964 -0.3964 -0.5430
v  0.8911 -0.1253 -0.4757
v  0.8889 0.0652 -0.4913
v  0.8879 0.3218 -0.6018
v  0.8925 0.4147 -0.6918
v  0.8482 0.4514 -0.5758
v  0.7222 0.6088 -0.3824
v  0.6228 0.7499 -0.3004
v  0.4734 0.9835 -0.2666
v  0.4137 1.0944 -0.2968
v  0.3804 1.0423 -0.1831
v  0.2331 0.9962 0.0498
v  0.4716 1.0123 -0.3445
v  0.8347 0.4968 -0.6441
v  0.6440 0.8295 -0.6343
v  -0.1720 1.1331 0.2602
v  0.3333 1.0997 -0.2203
v  0.0087 1.2310 -0.0637
v  -0.6599 0.5954 0.7773
v  -0.3084 1.0638 0.3972
v  -0.6181 0.9127 0.5659
v  -0.7064 -0.2857 0.9037
v  -0.7146 0.4100 0.8468
v  -0.8692 0.0611 0.8855
v  -0.2841 -0.9941 0.5655
v  -0.6473 -0.4786 0.8651
v  -0.5976 -0.8250 0.7080
v  0.3594 -1.1148 -0.0392
v  -0.1459 -1.0815 0.4413
v  0.0377 -1.2265 0.1373
v  0.8473 -0.5772 -0.5563
v  0.4958 -1.0456 -0.1762
v  0.6645 -0.9082 -0.4922
v  0.8938 0.3039 -0.6827
v  0.9020 -0.3918 -0.6258
v  0.9156 -0.0566 -0.8119
v  -0.8398 0.5308 0.7670
v  -0.8286 -0.4207 0.8448
v  -0.3320 -1.1258 0.4351
v  0.3591 -1.1714 -0.2221
v  0.8398 -0.5308 -0.7419
v  0.8286 0.4207 -0.8197
v  0.3320 1.1258 -0.4100
v  -0.3591 1.1714 0.2473
v  0.5976 0.8250 -0.6828
v  -0.0377 1.2265 -0.1121
v  -0.6645 0.9082 0.5174
v  -0.9156 0.0566 0.8370
v  -0.6440 -0.8295 0.6595
v  0.6181 -0.9128 -0.5407
v  0.8692 -0.0611 -0.8603
v  -0.0087 -1.2310 0.0888
v  -0.8919 -0.0631 -0.6299
v  -0.8478 -0.2070 -0.6588
v  -0.7446 -0.2723 -0.7515
v  -0.6428 -0.2206 -0.8538
v  -0.6020 -0.0822 -0.9057
v  -0.6461 0.0618 -0.8769
v  -0.7493 0.1270 -0.7841
v  -0.8504 0.0763 -0.6827
v  -0.8606 -0.1705 -0.7371
v  -0.8737 -0.1131 -0.8805
v  -0.7886 -0.2160 -0.8017
v  -0.7176 -0.1800 -0.8730
v  -0.8436 -0.0978 -0.9108
v  -0.6892 -0.0835 -0.9092
v  -0.7200 0.0169 -0.8891
v  -0.8567 -0.0552 -0.9022
v  -0.7919 0.0623 -0.8245
v  -0.8624 0.0270 -0.7537
v  -0.8867 -0.0704 -0.8720
v  -0.8914 -0.0702 -0.7169
v  -0.8865 -0.0950 -0.8699
v  -0.8560 -0.1143 -0.8974
v  -0.8439 -0.0733 -0.9128
v  -0.8744 -0.0539 -0.8854
# 112 vertices

vn 0.6899 0.0671 0.7208
vn 0.4359 0.0917 0.8953
vn 0.8036 0.2784 0.5260
vn 0.5353 0.4083 0.7394
vn 0.4964 -0.1310 0.8582
vn 0.6437 0.3686 0.6706
vn 0.3934 0.2191 0.8929
vn 0.6509 -0.2396 0.7204
vn 0.4915 0.2803 0.8245
vn 0.3967 -0.0619 0.9159
vn 0.8089 -0.1704 0.5627
vn 0.4362 0.0652 0.8975
vn 0.5433 -0.2701 0.7949
vn 0.8780 0.0360 0.4774
vn 0.5102 -0.1507 0.8467
vn 0.7474 -0.2836 0.6008
vn 0.8175 0.2588 0.5145
vn 0.6702 -0.2409 0.7021
vn 0.8894 -0.0944 0.4473
vn 0.6630 0.3673 0.6523
vn 0.8223 -0.1525 0.5482
vn 0.8861 0.1866 0.4243
vn 0.5049 0.2981 0.8100
vn 0.8776 0.0626 0.4752
vn 0.7394 0.3948 0.5453
vn 0.8466 0.5123 0.1445
vn 0.8439 0.5217 0.1251
vn 0.8512 0.4892 0.1900
vn 0.4904 0.7374 0.4645
vn 0.4797 0.7519 0.4522
vn 0.5146 0.7020 0.4924
vn 0.1389 0.5590 0.8175
vn 0.1203 0.5695 0.8132
vn 0.1824 0.5333 0.8260
vn -0.0019 0.0815 0.9967
vn -0.0236 0.0812 0.9964
vn 0.0493 0.0820 0.9954
vn 0.1504 -0.4154 0.8971
vn 0.1321 -0.4268 0.8946
vn 0.1933 -0.3876 0.9013
vn 0.5066 -0.6405 0.5771
vn 0.4963 -0.6570 0.5675
vn 0.5299 -0.6004 0.5989
vn 0.8581 -0.4621 0.2242
vn 0.8557 -0.4746 0.2065
vn 0.8621 -0.4317 0.2653
vn 0.9989 0.0155 0.0449
vn 0.9996 0.0137 0.0233
vn 0.9952 0.0196 0.0959
vn 0.8490 0.5018 0.1654
vn 0.5017 0.7214 0.4775
vn 0.1590 0.5474 0.8217
vn 0.0217 0.0817 0.9964
vn 0.1702 -0.4027 0.8994
vn 0.5175 -0.6223 0.5873
vn 0.8602 -0.4483 0.2431
vn 0.9975 0.0174 0.0684
vn 0.8164 0.2822 0.5039
vn 0.6484 0.3883 0.6548
vn 0.4826 0.3042 0.8213
vn 0.4162 0.0790 0.9058
vn 0.4880 -0.1553 0.8589
vn 0.6560 -0.2615 0.7080
vn 0.8218 -0.1773 0.5415
vn 0.8882 0.0478 0.4570
vn -0.3674 0.2165 0.9045
vn -0.2438 -0.4673 0.8498
vn 0.1896 -0.8611 0.4717
vn 0.6788 -0.7343 -0.0083
vn 0.9373 -0.1611 -0.3091
vn 0.8137 0.5227 -0.2544
vn 0.3803 0.9165 0.1237
vn -0.1089 0.7897 0.6037
vn -0.2563 0.5933 0.7631
vn -0.3640 -0.0752 0.9284
vn -0.0915 -0.6835 0.7242
vn 0.4015 -0.8751 0.2702
vn 0.8262 -0.5379 -0.1677
vn 0.9338 0.1307 -0.3330
vn 0.6614 0.7389 -0.1288
vn 0.1684 0.9305 0.3252
vn 0.5035 0.6709 -0.5444
vn -0.7157 0.2126 0.6653
vn -0.5829 -0.5390 0.6081
vn -0.1086 -0.9748 0.1947
vn 0.4293 -0.8396 -0.3328
vn 0.7157 -0.2126 -0.6653
vn 0.5829 0.5390 -0.6081
vn 0.1086 0.9748 -0.1947
vn -0.4293 0.8396 0.3328
vn -0.5965 0.6168 0.5135
vn -0.7118 -0.1184 0.6923
vn -0.4101 -0.7842 0.4656
vn 0.1318 -0.9907 -0.0339
vn 0.5965 -0.6168 -0.5135
vn 0.7118 0.1184 -0.6923
vn 0.4101 0.7842 -0.4656
vn -0.1318 0.9907 0.0339
vn -0.9877 0.1536 -0.0285
vn -0.9178 -0.3945 -0.0444
vn -0.5898 -0.7387 -0.3263
vn -0.1958 -0.6774 -0.7091
vn 0.0334 -0.2464 -0.9686
vn -0.0365 0.3017 -0.9527
vn -0.3645 0.6459 -0.6708
vn -0.7585 0.5847 -0.2878
vn -0.9268 0.3603 -0.1062
vn -0.9838 -0.1793 -0.0013
vn -0.7441 -0.6412 -0.1877
vn -0.3480 -0.7546 -0.5562
vn -0.1009 0.4872 0.8675
vn -0.0276 -0.4532 -0.8910
vn 0.0295 0.0865 -0.9958
vn -0.2103 0.5484 -0.8094
vn -0.6063 0.6619 -0.4408
vn 0.8457 -0.5116 0.1517
vn -0.6579 -0.7180 -0.2273
vn -0.6724 -0.6926 -0.2612
vn 0.0429 -0.3621 -0.9311
vn -0.0003 -0.3513 -0.9363
vn -0.2608 0.6286 -0.7327
vn -0.2916 0.5988 -0.7459
vn -0.9609 0.2755 -0.0290
vn -0.9630 0.2599 -0.0718
vn -0.9549 -0.2963 0.0178
vn -0.9572 -0.2882 -0.0262
vn -0.2446 -0.7452 -0.6203
vn -0.2760 -0.7187 -0.6382
vn 0.0362 0.2070 -0.9777
vn -0.0067 0.1944 -0.9809
vn -0.6725 0.6563 -0.3420
vn -0.4473 -0.7433 0.4973
vn -0.6861 0.6260 -0.3707
vn -0.6899 -0.0671 -0.7208
vn 0.0091 -0.9964 0.0841
vn -0.9995 -0.0116 -0.0298
vn -0.8564 0.4711 -0.2115
vn -0.4972 0.6525 -0.5719
vn -0.1372 0.4236 -0.8954
vn 0.0176 -0.0813 -0.9965
vn -0.1255 -0.5666 -0.8144
vn -0.4827 -0.7479 -0.4557
vn -0.8447 -0.5191 -0.1305
# 143 vertex normals

vt 0.0000 0.0000 0.0000
# 1 texture coords

g diamant_2
s 1
f 1/1/1 2/1/1 3/1/1 
f 1/1/1 3/1/1 4/1/1 
f 5/1/1 6/1/1 7/1/1 
f 5/1/1 7/1/1 4/1/1 
f 8/1/1 5/1/1 4/1/1 
f 8/1/1 4/1/1 3/1/1 
s off
f 9/1/2 10/1/2 11/1/2 
f 9/1/2 11/1/2 1/1/2 
f 12/1/3 13/1/3 2/1/3 
f 12/1/3 2/1/3 11/1/3 
f 1/1/4 11/1/4 2/1/4 
f 14/1/5 15/1/5 16/1/5 
f 14/1/5 16/1/5 2/1/5 
f 17/1/6 18/1/6 3/1/6 
f 17/1/6 3/1/6 16/1/6 
f 2/1/7 16/1/7 3/1/7 
f 19/1/8 20/1/8 21/1/8 
f 19/1/8 21/1/8 3/1/8 
f 22/1/9 23/1/9 8/1/9 
f 22/1/9 8/1/9 21/1/9 
f 3/1/10 21/1/10 8/1/10 
f 24/1/11 25/1/11 26/1/11 
f 24/1/11 26/1/11 8/1/11 
f 27/1/12 28/1/12 5/1/12 
f 27/1/12 5/1/12 26/1/12 
f 8/1/13 26/1/13 5/1/13 
f 29/1/14 30/1/14 31/1/14 
f 29/1/14 31/1/14 5/1/14 
f 32/1/15 33/1/15 6/1/15 
f 32/1/15 6/1/15 31/1/15 
f 5/1/16 31/1/16 6/1/16 
f 34/1/17 35/1/17 36/1/17 
f 34/1/17 36/1/17 6/1/17 
f 37/1/18 38/1/18 7/1/18 
f 37/1/18 7/1/18 36/1/18 
f 6/1/19 36/1/19 7/1/19 
f 39/1/20 40/1/20 41/1/20 
f 39/1/20 41/1/20 7/1/20 
f 42/1/21 43/1/21 4/1/21 
f 42/1/21 4/1/21 41/1/21 
f 7/1/22 41/1/22 4/1/22 
f 44/1/23 45/1/23 46/1/23 
f 44/1/23 46/1/23 4/1/23 
f 47/1/24 48/1/24 1/1/24 
f 47/1/24 1/1/24 46/1/24 
f 4/1/25 46/1/25 1/1/25 
f 49/1/26 45/1/26 44/1/26 
f 49/1/26 44/1/26 42/1/26 
f 44/1/27 43/1/27 42/1/27 
f 49/1/28 42/1/28 50/1/28 
f 49/1/28 50/1/28 51/1/28 
f 52/1/29 10/1/29 9/1/29 
f 52/1/29 9/1/29 47/1/29 
f 9/1/30 48/1/30 47/1/30 
f 52/1/31 47/1/31 53/1/31 
f 52/1/31 53/1/31 54/1/31 
f 55/1/32 15/1/32 14/1/32 
f 55/1/32 14/1/32 12/1/32 
f 14/1/33 13/1/33 12/1/33 
f 55/1/34 12/1/34 56/1/34 
f 55/1/34 56/1/34 57/1/34 
f 58/1/35 20/1/35 19/1/35 
f 58/1/35 19/1/35 17/1/35 
f 19/1/36 18/1/36 17/1/36 
f 58/1/37 17/1/37 59/1/37 
f 58/1/37 59/1/37 60/1/37 
f 61/1/38 25/1/38 24/1/38 
f 61/1/38 24/1/38 22/1/38 
f 24/1/39 23/1/39 22/1/39 
f 61/1/40 22/1/40 62/1/40 
f 61/1/40 62/1/40 63/1/40 
f 64/1/41 30/1/41 29/1/41 
f 64/1/41 29/1/41 27/1/41 
f 29/1/42 28/1/42 27/1/42 
f 64/1/43 27/1/43 65/1/43 
f 64/1/43 65/1/43 66/1/43 
f 67/1/44 35/1/44 34/1/44 
f 67/1/44 34/1/44 32/1/44 
f 34/1/45 33/1/45 32/1/45 
f 67/1/46 32/1/46 68/1/46 
f 67/1/46 68/1/46 69/1/46 
f 70/1/47 40/1/47 39/1/47 
f 70/1/47 39/1/47 37/1/47 
f 39/1/48 38/1/48 37/1/48 
f 70/1/49 37/1/49 71/1/49 
f 70/1/49 71/1/49 72/1/49 
f 46/1/50 45/1/50 49/1/50 
f 11/1/51 10/1/51 52/1/51 
f 16/1/52 15/1/52 55/1/52 
f 21/1/53 20/1/53 58/1/53 
f 26/1/54 25/1/54 61/1/54 
f 31/1/55 30/1/55 64/1/55 
f 36/1/56 35/1/56 67/1/56 
f 41/1/57 40/1/57 70/1/57 
f 4/1/58 43/1/58 44/1/58 
f 50/1/50 42/1/50 41/1/50 
f 1/1/59 48/1/59 9/1/59 
f 53/1/51 47/1/51 46/1/51 
f 2/1/60 13/1/60 14/1/60 
f 56/1/52 12/1/52 11/1/52 
f 3/1/61 18/1/61 19/1/61 
f 59/1/53 17/1/53 16/1/53 
f 8/1/62 23/1/62 24/1/62 
f 62/1/54 22/1/54 21/1/54 
f 5/1/63 28/1/63 29/1/63 
f 65/1/55 27/1/55 26/1/55 
f 6/1/64 33/1/64 34/1/64 
f 68/1/56 32/1/56 31/1/56 
f 7/1/65 38/1/65 39/1/65 
f 71/1/57 37/1/57 36/1/57 
f 59/1/66 16/1/66 73/1/66 
f 59/1/66 73/1/66 60/1/66 
f 62/1/67 21/1/67 74/1/67 
f 62/1/67 74/1/67 63/1/67 
f 65/1/68 26/1/68 75/1/68 
f 65/1/68 75/1/68 66/1/68 
f 68/1/69 31/1/69 76/1/69 
f 68/1/69 76/1/69 69/1/69 
f 71/1/70 36/1/70 77/1/70 
f 71/1/70 77/1/70 72/1/70 
f 50/1/71 41/1/71 78/1/71 
f 50/1/71 78/1/71 51/1/71 
f 53/1/72 46/1/72 79/1/72 
f 53/1/72 79/1/72 54/1/72 
f 56/1/73 11/1/73 80/1/73 
f 56/1/73 80/1/73 57/1/73 
f 55/1/74 57/1/74 73/1/74 
f 55/1/74 73/1/74 16/1/74 
f 58/1/75 60/1/75 74/1/75 
f 58/1/75 74/1/75 21/1/75 
f 61/1/76 63/1/76 75/1/76 
f 61/1/76 75/1/76 26/1/76 
f 64/1/77 66/1/77 76/1/77 
f 64/1/77 76/1/77 31/1/77 
f 67/1/78 69/1/78 77/1/78 
f 67/1/78 77/1/78 36/1/78 
f 70/1/79 72/1/79 78/1/79 
f 70/1/79 78/1/79 41/1/79 
f 49/1/80 51/1/80 79/1/80 
f 49/1/80 79/1/80 46/1/80 
f 52/1/81 54/1/81 80/1/81 
f 52/1/81 80/1/81 11/1/81 
f 51/1/82 81/1/82 81/1/82 
f 54/1/82 82/1/82 82/1/82 
f 57/1/82 83/1/82 83/1/82 
f 60/1/82 84/1/82 84/1/82 
f 63/1/82 85/1/82 85/1/82 
f 69/1/82 86/1/82 86/1/82 
f 72/1/82 87/1/82 87/1/82 
f 73/1/83 84/1/83 60/1/83 
f 74/1/84 85/1/84 63/1/84 
f 75/1/85 88/1/85 66/1/85 
f 76/1/86 86/1/86 69/1/86 
f 77/1/87 87/1/87 72/1/87 
f 78/1/88 81/1/88 51/1/88 
f 79/1/89 82/1/89 54/1/89 
f 80/1/90 83/1/90 57/1/90 
f 57/1/91 83/1/91 73/1/91 
f 60/1/92 84/1/92 74/1/92 
f 63/1/93 85/1/93 75/1/93 
f 66/1/94 88/1/94 76/1/94 
f 69/1/95 86/1/95 77/1/95 
f 72/1/96 87/1/96 78/1/96 
f 51/1/97 81/1/97 79/1/97 
f 54/1/98 82/1/98 80/1/98 
f 51/1/82 81/1/82 81/1/82 
f 51/1/82 81/1/82 81/1/82 
f 81/1/82 81/1/82 51/1/82 
f 54/1/82 82/1/82 82/1/82 
f 54/1/82 82/1/82 82/1/82 
f 82/1/82 82/1/82 54/1/82 
f 57/1/82 83/1/82 83/1/82 
f 57/1/82 83/1/82 83/1/82 
f 83/1/82 83/1/82 57/1/82 
f 60/1/82 84/1/82 84/1/82 
f 60/1/82 84/1/82 84/1/82 
f 84/1/82 84/1/82 60/1/82 
f 63/1/82 85/1/82 85/1/82 
f 63/1/82 85/1/82 85/1/82 
f 85/1/82 85/1/82 63/1/82 
f 66/1/82 88/1/82 88/1/82 
f 66/1/82 88/1/82 88/1/82 
f 69/1/82 86/1/82 86/1/82 
f 69/1/82 86/1/82 86/1/82 
f 72/1/82 87/1/82 87/1/82 
f 72/1/82 87/1/82 87/1/82 
f 87/1/82 87/1/82 72/1/82 
f 73/1/83 84/1/83 60/1/83 
f 60/1/82 84/1/82 84/1/82 
f 60/1/87 84/1/87 73/1/87 
f 74/1/84 85/1/84 63/1/84 
f 63/1/82 85/1/82 85/1/82 
f 63/1/88 85/1/88 74/1/88 
f 75/1/85 88/1/85 66/1/85 
f 66/1/82 88/1/82 88/1/82 
f 66/1/89 88/1/89 75/1/89 
f 76/1/86 86/1/86 69/1/86 
f 69/1/82 86/1/82 86/1/82 
f 69/1/90 86/1/90 76/1/90 
f 77/1/87 87/1/87 72/1/87 
f 72/1/82 87/1/82 87/1/82 
f 72/1/83 87/1/83 77/1/83 
f 78/1/88 81/1/88 51/1/88 
f 51/1/82 81/1/82 81/1/82 
f 51/1/84 81/1/84 78/1/84 
f 79/1/89 82/1/89 54/1/89 
f 54/1/82 82/1/82 82/1/82 
f 54/1/85 82/1/85 79/1/85 
f 80/1/90 83/1/90 57/1/90 
f 57/1/82 83/1/82 83/1/82 
f 57/1/86 83/1/86 80/1/86 
f 57/1/82 83/1/82 83/1/82 
f 57/1/91 83/1/91 73/1/91 
f 73/1/95 83/1/95 57/1/95 
f 60/1/82 84/1/82 84/1/82 
f 60/1/92 84/1/92 74/1/92 
f 74/1/96 84/1/96 60/1/96 
f 63/1/82 85/1/82 85/1/82 
f 63/1/93 85/1/93 75/1/93 
f 75/1/97 85/1/97 63/1/97 
f 66/1/94 88/1/94 76/1/94 
f 76/1/98 88/1/98 66/1/98 
f 69/1/82 86/1/82 86/1/82 
f 69/1/95 86/1/95 77/1/95 
f 77/1/91 86/1/91 69/1/91 
f 72/1/82 87/1/82 87/1/82 
f 72/1/96 87/1/96 78/1/96 
f 78/1/92 87/1/92 72/1/92 
f 51/1/82 81/1/82 81/1/82 
f 51/1/97 81/1/97 79/1/97 
f 79/1/93 81/1/93 51/1/93 
f 54/1/98 82/1/98 80/1/98 
f 80/1/94 82/1/94 54/1/94 
f 84/1/99 73/1/99 73/1/99 
f 84/1/99 73/1/99 89/1/99 
f 74/1/100 74/1/100 90/1/100 
f 74/1/100 90/1/100 85/1/100 
f 88/1/101 75/1/101 75/1/101 
f 88/1/101 75/1/101 91/1/101 
f 76/1/102 92/1/102 86/1/102 
f 76/1/102 86/1/102 76/1/102 
f 87/1/103 77/1/103 77/1/103 
f 87/1/103 77/1/103 93/1/103 
f 78/1/104 78/1/104 94/1/104 
f 78/1/104 94/1/104 81/1/104 
f 82/1/105 79/1/105 79/1/105 
f 82/1/105 79/1/105 95/1/105 
f 80/1/106 80/1/106 96/1/106 
f 80/1/106 96/1/106 83/1/106 
f 73/1/107 83/1/107 96/1/107 
f 73/1/107 96/1/107 73/1/107 
f 89/1/108 74/1/108 74/1/108 
f 89/1/108 74/1/108 84/1/108 
f 75/1/109 75/1/109 85/1/109 
f 75/1/109 85/1/109 90/1/109 
f 76/1/110 88/1/110 91/1/110 
f 91/1/111 76/1/111 76/1/111 
f 77/1/112 86/1/112 92/1/112 
f 77/1/112 92/1/112 77/1/112 
f 78/1/113 87/1/113 93/1/113 
f 78/1/113 93/1/113 78/1/113 
f 79/1/114 79/1/114 81/1/114 
f 79/1/114 81/1/114 94/1/114 
f 80/1/115 82/1/115 95/1/115 
f 95/1/116 80/1/116 80/1/116 
f 90/1/117 97/1/117 98/1/117 
f 90/1/117 98/1/117 99/1/117 
f 98/1/82 98/1/82 99/1/82 
f 75/1/118 90/1/118 99/1/118 
f 75/1/118 99/1/118 91/1/118 
f 92/1/119 100/1/119 101/1/119 
f 92/1/119 101/1/119 102/1/119 
f 101/1/82 101/1/82 102/1/82 
f 77/1/120 92/1/120 102/1/120 
f 77/1/120 102/1/120 93/1/120 
f 94/1/121 103/1/121 104/1/121 
f 94/1/121 104/1/121 105/1/121 
f 104/1/82 104/1/82 105/1/82 
f 79/1/122 94/1/122 105/1/122 
f 79/1/122 105/1/122 95/1/122 
f 96/1/123 106/1/123 107/1/123 
f 96/1/123 107/1/123 108/1/123 
f 107/1/82 107/1/82 108/1/82 
f 108/1/124 89/1/124 73/1/124 
f 108/1/124 73/1/124 96/1/124 
f 89/1/125 108/1/125 109/1/125 
f 89/1/125 109/1/125 97/1/125 
f 109/1/82 109/1/82 97/1/82 
f 97/1/126 90/1/126 74/1/126 
f 97/1/126 74/1/126 89/1/126 
f 91/1/127 99/1/127 110/1/127 
f 91/1/127 110/1/127 100/1/127 
f 110/1/82 110/1/82 100/1/82 
f 100/1/128 92/1/128 76/1/128 
f 100/1/128 76/1/128 91/1/128 
f 93/1/129 102/1/129 111/1/129 
f 93/1/129 111/1/129 103/1/129 
f 111/1/82 111/1/82 103/1/82 
f 103/1/130 94/1/130 78/1/130 
f 103/1/130 78/1/130 93/1/130 
f 95/1/131 105/1/131 112/1/131 
f 95/1/131 112/1/131 106/1/131 
f 112/1/132 112/1/132 106/1/132 
f 106/1/133 96/1/133 80/1/133 
f 106/1/133 80/1/133 95/1/133 
f 107/1/134 107/1/134 112/1/134 
f 107/1/134 112/1/134 104/1/134 
f 112/1/135 112/1/135 104/1/135 
f 104/1/134 104/1/134 111/1/134 
f 104/1/134 111/1/134 107/1/134 
f 111/1/134 111/1/134 101/1/134 
f 111/1/134 101/1/134 107/1/134 
f 101/1/134 101/1/134 110/1/134 
f 101/1/134 110/1/134 107/1/134 
f 110/1/134 110/1/134 98/1/134 
f 110/1/134 98/1/134 107/1/134 
f 98/1/134 98/1/134 109/1/134 
f 98/1/134 109/1/134 107/1/134 
f 109/1/82 107/1/82 109/1/82 
f 108/1/136 107/1/136 109/1/136 
f 106/1/137 112/1/137 107/1/137 
f 105/1/138 104/1/138 112/1/138 
f 103/1/139 111/1/139 104/1/139 
f 102/1/140 101/1/140 111/1/140 
f 100/1/141 110/1/141 101/1/141 
f 99/1/142 98/1/142 110/1/142 
f 97/1/143 109/1/143 98/1/143 
# 327 faces

