# 3ds Max Wavefront OBJ Exporter v0.97b - (c)2007 guruware
# File Created: 13.02.2016 01:20:27

#
# object Box001
#

v  -4.9609 0.0000 7.5406
v  -4.9609 0.0000 -7.5406
v  0.0000 0.0000 -0.0000
v  4.9609 0.0000 -7.5406
v  4.9609 0.0000 7.5406
v  -4.9609 5.0006 7.5406
v  4.9609 5.0006 7.5406
v  0.0000 5.0006 -0.0000
v  4.9609 5.0006 -7.5406
v  -4.9609 5.0006 -7.5406
v  -4.9609 0.0794 7.6200
v  4.9609 0.0794 7.6200
v  0.0000 2.5003 7.6200
v  4.9609 4.9212 7.6200
v  -4.9609 4.9212 7.6200
v  5.0403 0.0794 7.5406
v  5.0403 0.0794 -7.5406
v  5.0403 2.5003 -0.0000
v  5.0403 4.9212 -7.5406
v  5.0403 4.9212 7.5406
v  4.9609 0.0794 -7.6200
v  -4.9609 0.0794 -7.6200
v  0.0000 2.5003 -7.6200
v  -4.9609 4.9212 -7.6200
v  4.9609 4.9212 -7.6200
v  -5.0403 0.0794 -7.5406
v  -5.0403 0.0794 7.5406
v  -5.0403 2.5003 -0.0000
v  -5.0403 4.9212 7.5406
v  -5.0403 4.9212 -7.5406
v  -4.9874 0.0529 7.5671
v  4.9874 0.0529 7.5671
v  -4.9874 0.0529 -7.5671
v  4.9874 0.0529 -7.5671
v  -4.9874 4.9477 7.5671
v  4.9874 4.9477 7.5671
v  -4.9874 4.9477 -7.5671
v  4.9874 4.9477 -7.5671
v  -5.0006 0.0397 -0.0000
v  0.0000 0.0397 -7.5803
v  5.0006 0.0397 -0.0000
v  0.0000 0.0397 7.5803
v  0.0000 4.9609 7.5803
v  5.0006 4.9609 -0.0000
v  0.0000 4.9609 -7.5803
v  -5.0006 4.9609 -0.0000
v  5.0006 2.5003 7.5803
v  -5.0006 2.5003 7.5803
v  5.0006 2.5003 -7.5803
v  -5.0006 2.5003 -7.5803
# 50 vertices

vn 0.0000 -1.0000 -0.0000
vn 0.0000 1.0000 -0.0000
vn 0.0000 0.0000 1.0000
vn 1.0000 0.0000 -0.0000
vn 0.0000 0.0000 -1.0000
vn -1.0000 0.0000 -0.0000
vn -0.5773 -0.5773 0.5774
vn -0.5774 -0.5773 0.5774
vn -0.5773 -0.5774 0.5774
vn 0.5773 -0.5774 0.5774
vn 0.5774 -0.5773 0.5774
vn 0.5773 -0.5773 0.5774
vn -0.5774 -0.5773 -0.5774
vn -0.5773 -0.5773 -0.5774
vn -0.5773 -0.5774 -0.5774
vn 0.5773 -0.5774 -0.5774
vn 0.5773 -0.5773 -0.5774
vn 0.5774 -0.5773 -0.5774
vn -0.5773 0.5773 0.5774
vn -0.5773 0.5774 0.5774
vn -0.5774 0.5773 0.5774
vn 0.5774 0.5773 0.5774
vn 0.5773 0.5774 0.5774
vn 0.5773 0.5773 0.5774
vn -0.5774 0.5773 -0.5774
vn -0.5773 0.5774 -0.5774
vn -0.5773 0.5773 -0.5774
vn 0.5773 0.5773 -0.5774
vn 0.5773 0.5774 -0.5774
vn 0.5774 0.5773 -0.5774
vn -0.7071 -0.7071 0.0000
vn -0.7071 -0.7071 -0.0000
vn -0.0000 -0.7071 -0.7071
vn 0.0000 -0.7071 -0.7071
vn 0.7071 -0.7071 -0.0000
vn 0.7071 -0.7071 0.0000
vn 0.0000 -0.7071 0.7071
vn -0.0000 -0.7071 0.7071
vn -0.0000 0.7071 0.7071
vn 0.0000 0.7071 0.7071
vn 0.7071 0.7071 -0.0000
vn 0.0000 0.7071 -0.7071
vn -0.0000 0.7071 -0.7071
vn -0.7071 0.7071 -0.0000
vn 0.7071 -0.0000 0.7071
vn 0.7071 0.0000 0.7071
vn -0.7071 0.0000 0.7071
vn -0.7071 -0.0000 0.7071
vn 0.7071 -0.0000 -0.7071
vn 0.7071 0.0000 -0.7071
vn -0.7071 -0.0000 -0.7071
vn -0.7071 0.0000 -0.7071
# 52 vertex normals

vt 0.4143 0.6021 0.0000
vt 0.0020 0.6021 0.0000
vt 0.2081 0.4665 0.0000
vt 0.0020 0.3309 0.0000
vt 0.4143 0.3309 0.0000
vt 0.4143 0.0041 0.0000
vt 0.4143 0.2753 0.0000
vt 0.2081 0.1397 0.0000
vt 0.0020 0.2753 0.0000
vt 0.0020 0.0041 0.0000
vt 0.4719 0.5512 0.0000
vt 0.7432 0.5512 0.0000
vt 0.6076 0.6173 0.0000
vt 0.7432 0.6835 0.0000
vt 0.4719 0.6835 0.0000
vt 0.0020 0.6598 0.0000
vt 0.4143 0.6598 0.0000
vt 0.2081 0.7260 0.0000
vt 0.4143 0.7922 0.0000
vt 0.0020 0.7922 0.0000
vt 0.4719 0.7268 0.0000
vt 0.7432 0.7268 0.0000
vt 0.6076 0.7930 0.0000
vt 0.7432 0.8591 0.0000
vt 0.4719 0.8591 0.0000
vt 0.4719 0.0020 0.0000
vt 0.8842 0.0020 0.0000
vt 0.6781 0.0682 0.0000
vt 0.8842 0.1344 0.0000
vt 0.4719 0.1344 0.0000
vt 0.0191 0.9803 0.0000
vt 0.0191 0.9772 0.0000
vt 0.0200 0.9788 0.0000
vt 0.0218 0.9788 0.0000
vt 0.0412 0.9785 0.0000
vt 0.0396 0.9759 0.0000
vt 0.0412 0.9768 0.0000
vt 0.0427 0.9759 0.0000
vt 0.0571 0.9759 0.0000
vt 0.0602 0.9759 0.0000
vt 0.0587 0.9768 0.0000
vt 0.0587 0.9785 0.0000
vt 0.0412 0.9615 0.0000
vt 0.0396 0.9588 0.0000
vt 0.0412 0.9597 0.0000
vt 0.0427 0.9588 0.0000
vt 0.8473 0.1847 0.0000
vt 0.8443 0.1863 0.0000
vt 0.8453 0.1847 0.0000
vt 0.8443 0.1829 0.0000
vt 0.4749 0.9070 0.0000
vt 0.4749 0.9104 0.0000
vt 0.4739 0.9087 0.0000
vt 0.4719 0.9088 0.0000
vt 0.0746 0.9785 0.0000
vt 0.0761 0.9759 0.0000
vt 0.0761 0.9776 0.0000
vt 0.0777 0.9785 0.0000
vt 0.0218 0.9628 0.0000
vt 0.0191 0.9613 0.0000
vt 0.0209 0.9613 0.0000
vt 0.0218 0.9597 0.0000
vt 0.4719 0.9707 0.0000
vt 0.4719 0.9681 0.0000
vt 0.7171 0.9694 0.0000
vt 0.9622 0.9681 0.0000
vt 0.9622 0.9707 0.0000
vt 0.7971 0.3309 0.0000
vt 0.7971 0.3335 0.0000
vt 0.6358 0.3322 0.0000
vt 0.4745 0.3335 0.0000
vt 0.4745 0.3309 0.0000
vt 0.9622 0.2296 0.0000
vt 0.9622 0.2322 0.0000
vt 0.7171 0.2309 0.0000
vt 0.4719 0.2322 0.0000
vt 0.4719 0.2296 0.0000
vt 0.0046 0.9980 0.0000
vt 0.0046 0.9954 0.0000
vt 0.1658 0.9967 0.0000
vt 0.3271 0.9954 0.0000
vt 0.3271 0.9980 0.0000
vt 0.3271 0.8354 0.0000
vt 0.3271 0.8380 0.0000
vt 0.1658 0.8367 0.0000
vt 0.0046 0.8380 0.0000
vt 0.0046 0.8354 0.0000
vt 0.6611 0.9064 0.0000
vt 0.8472 0.9024 0.0000
vt 0.8473 0.9058 0.0000
vt 0.4745 0.4935 0.0000
vt 0.4745 0.4909 0.0000
vt 0.6358 0.4922 0.0000
vt 0.7971 0.4909 0.0000
vt 0.7971 0.4935 0.0000
vt 0.4719 0.1810 0.0000
vt 0.4720 0.1776 0.0000
vt 0.6581 0.1820 0.0000
vt 0.0020 0.9954 0.0000
vt 0.0033 0.9167 0.0000
vt 0.0020 0.8380 0.0000
vt 0.3297 0.8380 0.0000
vt 0.3284 0.9167 0.0000
vt 0.3297 0.9954 0.0000
vt 0.4719 0.3335 0.0000
vt 0.4732 0.4122 0.0000
vt 0.4719 0.4909 0.0000
vt 0.7996 0.3335 0.0000
vt 0.7984 0.4122 0.0000
vt 0.7996 0.4909 0.0000
# 110 texture coords

g Box001
s 1
f 1/1/1 2/2/1 3/3/1 
f 2/2/1 4/4/1 3/3/1 
f 4/4/1 5/5/1 3/3/1 
f 5/5/1 1/1/1 3/3/1 
f 6/6/2 7/7/2 8/8/2 
f 7/7/2 9/9/2 8/8/2 
f 9/9/2 10/10/2 8/8/2 
f 10/10/2 6/6/2 8/8/2 
f 11/11/3 12/12/3 13/13/3 
f 12/12/3 14/14/3 13/13/3 
f 14/14/3 15/15/3 13/13/3 
f 15/15/3 11/11/3 13/13/3 
f 16/16/4 17/17/4 18/18/4 
f 17/17/4 19/19/4 18/18/4 
f 19/19/4 20/20/4 18/18/4 
f 20/20/4 16/16/4 18/18/4 
f 21/21/5 22/22/5 23/23/5 
f 22/22/5 24/24/5 23/23/5 
f 24/24/5 25/25/5 23/23/5 
f 25/25/5 21/21/5 23/23/5 
f 26/26/6 27/27/6 28/28/6 
f 27/27/6 29/29/6 28/28/6 
f 29/29/6 30/30/6 28/28/6 
f 30/30/6 26/26/6 28/28/6 
s 2
f 11/31/7 27/32/8 31/33/9 
f 27/32/8 1/34/9 31/33/9 
f 1/34/9 11/31/7 31/33/9 
f 5/35/10 16/36/11 32/37/10 
f 16/36/11 12/38/12 32/37/10 
f 12/38/12 5/35/10 32/37/10 
f 26/39/13 22/40/14 33/41/15 
f 22/40/14 2/42/15 33/41/15 
f 2/42/15 26/39/13 33/41/15 
f 4/43/16 21/44/17 34/45/16 
f 21/44/17 17/46/18 34/45/16 
f 17/46/18 4/43/16 34/45/16 
f 15/47/19 6/48/20 35/49/19 
f 6/48/20 29/50/21 35/49/19 
f 29/50/21 15/47/19 35/49/19 
f 20/51/22 7/52/23 36/53/24 
f 7/52/23 14/54/24 36/53/24 
f 14/54/24 20/51/22 36/53/24 
f 30/55/25 10/56/26 37/57/27 
f 10/56/26 24/58/27 37/57/27 
f 24/58/27 30/55/25 37/57/27 
f 25/59/28 9/60/29 38/61/28 
f 9/60/29 19/62/30 38/61/28 
f 19/62/30 25/59/28 38/61/28 
s 4
f 1/63/31 27/64/31 39/65/31 
f 27/64/31 26/66/32 39/65/31 
f 26/66/32 2/67/32 39/65/31 
f 2/67/32 1/63/31 39/65/31 
s 8
f 2/68/33 22/69/33 40/70/34 
f 22/69/33 21/71/34 40/70/34 
f 21/71/34 4/72/34 40/70/34 
f 4/72/34 2/68/33 40/70/34 
s 4
f 4/73/35 17/74/35 41/75/35 
f 17/74/35 16/76/36 41/75/35 
f 16/76/36 5/77/36 41/75/35 
f 5/77/36 4/73/35 41/75/35 
s 8
f 5/78/37 12/79/37 42/80/37 
f 12/79/37 11/81/38 42/80/37 
f 11/81/38 1/82/38 42/80/37 
f 1/82/38 5/78/37 42/80/37 
s 4
f 6/83/39 15/84/39 43/85/40 
f 15/84/39 14/86/40 43/85/40 
f 14/86/40 7/87/40 43/85/40 
f 7/87/40 6/83/39 43/85/40 
s 8
f 7/52/41 20/51/41 44/88/41 
f 20/51/41 19/89/41 44/88/41 
f 19/89/41 9/90/41 44/88/41 
f 9/90/41 7/52/41 44/88/41 
s 4
f 9/91/42 25/92/42 45/93/42 
f 25/92/42 24/94/43 45/93/42 
f 24/94/43 10/95/43 45/93/42 
f 10/95/43 9/91/42 45/93/42 
s 8
f 10/96/44 30/97/44 46/98/44 
f 30/97/44 29/50/44 46/98/44 
f 29/50/44 6/48/44 46/98/44 
f 6/48/44 10/96/44 46/98/44 
s 16
f 12/79/45 16/99/45 47/100/46 
f 16/99/45 20/101/46 47/100/46 
f 20/101/46 14/86/46 47/100/46 
f 14/86/46 12/79/45 47/100/46 
f 15/84/47 29/102/47 48/103/47 
f 29/102/47 27/104/48 48/103/47 
f 27/104/48 11/81/48 48/103/47 
f 11/81/48 15/84/47 48/103/47 
f 17/105/49 21/71/49 49/106/50 
f 21/71/49 25/92/50 49/106/50 
f 25/92/50 19/107/50 49/106/50 
f 19/107/50 17/105/49 49/106/50 
f 22/69/51 26/108/51 50/109/52 
f 26/108/51 30/110/52 50/109/52 
f 30/110/52 24/94/52 50/109/52 
f 24/94/52 22/69/51 50/109/52 
# 96 faces

